# xmcd
#
# Track frame offsets: 
#        150
#        13804
#        34284
#        50900
#        67705
#        84588
#        98993
#        114467
#        120322
#        125464
#        142968
#        160223
#        174702
#        195182
#        211350
#        228012
#        240242
#        261698
#        282552
#        291257
#        308812
#
# Disc length: 4295 seconds
#
# Revision: 0
# Processed by: cddbd v1.5.2PL0 Copyright (c) Steve Scherf et al.
# Submitted via: ExactAudioCopy v1.0b3
#
DISCID=2c10c515
DTITLE=Various Artist - Дешевле Только Воздух - Ты в Деле
DYEAR=2003
DGENRE=Hip-Hop
TTITLE0=L@ut and HanG - За нами
TTITLE1=Группа-В-Ухо - В Доме С Длинными Тенями
TTITLE2=HanG and Миткус and Френдер - Держава
TTITLE3=Каменный Пояс - КаПо Зами Зами
TTITLE4=Френдер and Стакан and Mad Max - Урал У Руля
TTITLE5=Негатив feat. Алика - Страна Для Психопатов
TTITLE6=MD - Все ещё во мраке
TTITLE7=Френдер - Юра Пелин
TTITLE8=Уставшие - Красота
TTITLE9=Миткус - Крик Души
TTITLE10=Эпицентр Альянс - Выходные
TTITLE11=L@ut and HanG - Дали Бы Волю
TTITLE12=Каменный Пояс - Россия
TTITLE13=MD - Застольная
TTITLE14=L@ut and R.A.M and JaGGa - Высота
TTITLE15=Френдер - Резиновая Марина
TTITLE16=Каменный Пояс - Вольному Воля
TTITLE17=Легион - Шесть МС
TTITLE18=MD - В Какой-то Мере
TTITLE19=Седой and А9 - Слушатель
TTITLE20=HanG and Миткус - Мажоры
EXTD=
EXTT0=
EXTT1=
EXTT2=
EXTT3=
EXTT4=
EXTT5=
EXTT6=
EXTT7=
EXTT8=
EXTT9=
EXTT10=
EXTT11=
EXTT12=
EXTT13=
EXTT14=
EXTT15=
EXTT16=
EXTT17=
EXTT18=
EXTT19=
EXTT20=
PLAYORDER=
